<svg width="14" height="15" viewBox="0 0 14 15" fill="none" xmlns="http://www.w3.org/2000/svg">
<path d="M2.625 0V0.625H0.125V14.375H13.875V0.625H11.375V0H10.125V0.625H3.875V0H2.625ZM1.375 1.875H2.625V2.5H3.875V1.875H10.125V2.5H11.375V1.875H12.625V3.125H1.375V1.875ZM1.375 4.375H12.625V13.125H1.375V4.375ZM5.125 5.625V6.875H6.375V5.625H5.125ZM7.625 5.625V6.875H8.875V5.625H7.625ZM10.125 5.625V6.875H11.375V5.625H10.125ZM2.625 8.125V9.375H3.875V8.125H2.625ZM5.125 8.125V9.375H6.375V8.125H5.125ZM7.625 8.125V9.375H8.875V8.125H7.625ZM10.125 8.125V9.375H11.375V8.125H10.125ZM2.625 10.625V11.875H3.875V10.625H2.625ZM5.125 10.625V11.875H6.375V10.625H5.125ZM7.625 10.625V11.875H8.875V10.625H7.625Z" fill="#FE8C12"/>
</svg>
