<svg width="18" height="17" viewBox="0 0 18 17" fill="none" xmlns="http://www.w3.org/2000/svg">
<path d="M9 0.5C7.51042 0.5 6.12109 0.879557 4.83203 1.63867C3.58594 2.35482 2.60482 3.33594 1.88867 4.58203C1.12956 5.87109 0.75 7.26042 0.75 8.75C0.75 10.2396 1.12956 11.6289 1.88867 12.918C2.60482 14.1641 3.58594 15.1523 4.83203 15.8828C6.12109 16.6276 7.51042 17 9 17C10.4896 17 11.8789 16.6276 13.168 15.8828C14.4141 15.1523 15.4023 14.1641 16.1328 12.918C16.8776 11.6289 17.25 10.2396 17.25 8.75C17.25 7.26042 16.8776 5.87109 16.1328 4.58203C15.4023 3.33594 14.4141 2.35482 13.168 1.63867C11.8789 0.879557 10.4896 0.5 9 0.5ZM9 1.875C10.2461 1.875 11.4062 2.1901 12.4805 2.82031C13.5117 3.42188 14.3281 4.23828 14.9297 5.26953C15.5599 6.34375 15.875 7.50391 15.875 8.75C15.875 9.99609 15.5599 11.1562 14.9297 12.2305C14.3281 13.2617 13.5117 14.0781 12.4805 14.6797C11.4062 15.3099 10.2461 15.625 9 15.625C7.75391 15.625 6.59375 15.3099 5.51953 14.6797C4.48828 14.0781 3.67188 13.2617 3.07031 12.2305C2.4401 11.1562 2.125 9.99609 2.125 8.75C2.125 7.50391 2.4401 6.34375 3.07031 5.26953C3.67188 4.23828 4.48828 3.42188 5.51953 2.82031C6.59375 2.1901 7.75391 1.875 9 1.875ZM9 4.625C8.4987 4.625 8.04036 4.75391 7.625 5.01172C7.20964 5.25521 6.87305 5.58464 6.61523 6C6.37174 6.41536 6.25 6.8737 6.25 7.375H7.625C7.625 6.98828 7.75391 6.66602 8.01172 6.4082C8.28385 6.13607 8.61328 6 9 6C9.38672 6 9.70898 6.13607 9.9668 6.4082C10.2389 6.66602 10.375 6.98828 10.375 7.375C10.375 7.63281 10.2962 7.86914 10.1387 8.08398C9.98112 8.29883 9.7806 8.44922 9.53711 8.53516L9.25781 8.62109C8.97135 8.70703 8.74219 8.87174 8.57031 9.11523C8.39844 9.35872 8.3125 9.63086 8.3125 9.93164V10.8125H9.6875V9.93164L9.9668 9.8457C10.4967 9.67383 10.9264 9.35872 11.2559 8.90039C11.5853 8.44206 11.75 7.93359 11.75 7.375C11.75 6.8737 11.6211 6.41536 11.3633 6C11.1198 5.58464 10.7904 5.25521 10.375 5.01172C9.95964 4.75391 9.5013 4.625 9 4.625ZM8.3125 11.5V12.875H9.6875V11.5H8.3125Z" fill="#FE8C12"/>
</svg>
