<svg width="40" height="28" viewBox="0 0 40 28" fill="none" xmlns="http://www.w3.org/2000/svg">
<path fill-rule="evenodd" clip-rule="evenodd" d="M0.597112 0.15439C0.418242 0.246943 0.243514 0.423045 0.146694 0.608456C-0.00951415 0.907479 -0.0113114 1.00987 0.00908395 8.57495C0.0295575 16.1804 0.0309641 16.2401 0.190845 16.4492C0.27946 16.5651 0.449031 16.7307 0.567652 16.8172C0.776529 16.9696 0.889525 16.9752 4.13528 16.996L7.48716 17.0174L7.50928 22.1081C7.53139 27.1888 7.53178 27.1994 7.7019 27.4659C8.0387 27.9937 8.073 28 10.6104 28H12.8838L13.1923 27.7278C13.4969 27.4592 13.5259 27.3823 15.4599 21.7129L17.4189 15.9701L17.3982 8.37092C17.3777 0.830568 17.3763 0.770138 17.2164 0.561073C17.1278 0.445172 16.9582 0.279599 16.8395 0.193074C16.6253 0.0368862 16.5675 0.0355895 8.75652 0.0194138C1.04698 0.00346689 0.883429 0.00621351 0.597112 0.15439ZM23.3125 0.104947C22.9981 0.238626 22.6695 0.628447 22.6132 0.934489C22.5883 1.06969 22.5781 4.56839 22.5905 8.70939C22.613 16.1775 22.6145 16.2402 22.7743 16.4492C22.8629 16.5651 23.0324 16.7307 23.1511 16.8172C23.36 16.9696 23.4725 16.9752 26.7588 16.996L30.1507 17.0173L30.1719 22.2022L30.193 27.3871L30.4872 27.6745L30.7814 27.9618L33.083 27.9842C35.6367 28.0089 35.7202 27.9957 36.0181 27.5194C36.1021 27.3851 37.0324 24.7501 38.0855 21.6641L40 16.0529V8.48003C40 1.04085 39.9972 0.901833 39.8427 0.606014C39.7414 0.412134 39.5754 0.250071 39.3769 0.151185C39.0738 0.000262049 38.9347 -0.0023321 31.3097 0.000567331C25.0356 0.00300896 23.5052 0.0229232 23.3125 0.104947Z" fill="white"/>
</svg>
