<svg width="30" height="30" viewBox="0 0 30 30" fill="none" xmlns="http://www.w3.org/2000/svg">
<path fill-rule="evenodd" clip-rule="evenodd" d="M21.2409 0.0956724C20.9398 0.201684 20.601 0.518839 20.4373 0.847896C20.3281 1.06737 20.3216 1.21144 20.3216 3.39658C20.3216 5.65923 20.3245 5.71804 20.4488 5.94719C20.5188 6.0762 20.6644 6.26616 20.7724 6.3693C21.1073 6.68922 21.349 6.7572 22.2516 6.78546L23.0638 6.8109L23.0319 6.9654C22.9267 7.47516 22.5832 9.57126 22.5982 9.61224C22.6081 9.63924 23.6487 9.01734 24.9107 8.23014L27.2053 6.7989L27.8938 6.79818C28.2724 6.79776 28.717 6.7686 28.8818 6.73338C29.289 6.64632 29.6398 6.37008 29.8382 5.98026L30 5.66228L29.9987 3.37142C29.9975 1.27616 29.9882 1.06027 29.8895 0.843678C29.7535 0.545401 29.3133 0.154893 29.0111 0.064713C28.8442 0.0148734 27.7718 -0.00295158 25.1393 0.000390603C22.0131 0.00437777 21.4619 0.0178051 21.2409 0.0956724ZM28.9142 1.1365L29.0587 1.28039V3.33911C29.0587 5.43959 29.0472 5.55803 28.8284 5.72543C28.7648 5.77404 28.4542 5.79749 27.8568 5.79872L26.9786 5.8006L25.4572 6.74652C24.6205 7.26678 23.9264 7.68228 23.9148 7.66998C23.9033 7.65768 23.9668 7.23198 24.0562 6.72408L24.2184 5.8006H22.8998H21.5812L21.4368 5.65665L21.2924 5.51276V3.38837C21.2924 1.28789 21.2938 1.26245 21.4202 1.12823L21.5482 0.99255H25.159H28.7698L28.9142 1.1365ZM13.6732 1.49903C13.0673 1.56324 11.9301 1.77908 11.3666 1.93675C9.0642 2.58103 7.05354 3.74938 5.37467 5.41848C3.7061 7.07724 2.55163 9.0159 1.91232 11.2324L1.71546 11.9149L1.28725 11.2013C1.05173 10.8087 0.83616 10.4735 0.808272 10.4563C0.770034 10.4327 0.168498 10.7488 0.000169656 10.8809C-0.0172456 10.8946 1.3112 13.1449 1.63509 13.6504C1.67545 13.7132 1.99563 13.5468 3.09079 12.8935C3.86301 12.433 4.50296 12.05 4.51291 12.0424C4.52591 12.0325 4.10047 11.3003 4.03163 11.2142C4.02716 11.2087 3.74569 11.3728 3.40609 11.5788C3.0665 11.7849 2.77079 11.9544 2.74902 11.9554C2.68589 11.9584 2.92517 11.164 3.20011 10.4582C4.68017 6.65826 7.87614 3.83381 11.8555 2.809C13.8188 2.30339 16.0875 2.30292 18.0714 2.80783L18.7041 2.96884L18.8455 2.52304C18.949 2.19673 18.9683 2.0668 18.9178 2.03807C18.793 1.96718 17.8989 1.75615 17.1916 1.63061C16.6566 1.53574 16.2002 1.50361 15.2029 1.49077C14.491 1.48156 13.8026 1.48532 13.6732 1.49903ZM22.2461 2.41444L22.2631 2.89818L25.1608 2.91337L28.0585 2.92861V2.42963V1.9307H25.1437H22.229L22.2461 2.41444ZM22.2461 4.34939L22.2631 4.83313L24.19 4.84861L26.1169 4.86403V4.36487V3.86566H24.1729H22.229L22.2461 4.34939ZM27.1171 4.36405V4.86244H27.5878H28.0585V4.36405V3.86566H27.5878H27.1171V4.36405ZM14.0262 4.90085C12.8227 5.09241 11.5711 5.69764 10.66 6.5286C9.8469 7.27014 9.14718 8.44434 8.83434 9.59208L8.67714 10.1689L8.67468 12.5729L8.67216 14.977L8.82516 15.3022C9.04764 15.7748 9.306 16.0359 9.7749 16.2619L10.1878 16.461L10.351 16.9666C10.4407 17.2447 10.6292 17.6749 10.7698 17.9225C11.0556 18.4255 11.7964 19.2141 12.2463 19.4939C12.4406 19.6148 12.5257 19.7066 12.5258 19.7955C12.5259 19.9424 12.67 19.9066 10.4564 20.3102C9.65802 20.4557 8.8599 20.6288 8.68278 20.6949C7.74126 21.046 7.02522 21.7917 6.66642 22.795C6.57798 23.0422 6.48882 23.2642 6.4683 23.2882C6.44772 23.3123 6.04164 22.9409 5.56582 22.463C4.39724 21.289 4.38664 21.4561 5.71438 20.125L6.72798 19.1089L4.93481 17.3197L3.14163 15.5305L1.84207 16.8368C0.746088 17.9386 0.513568 18.2029 0.357477 18.5243C0.0681246 19.1202 -0.0226585 19.5675 0.00711222 20.2505C0.0356474 20.9043 0.159731 21.3272 0.475148 21.8459C0.598408 22.0486 1.93656 23.42 4.34428 25.8111C7.7814 29.2246 8.05188 29.4792 8.43126 29.6587C9.48852 30.1589 10.7762 30.1055 11.7032 29.5231C11.8629 29.4227 12.6021 28.7869 13.3459 28.1102L14.6981 26.8798L14.3344 26.5133L13.9708 26.1469H19.1613C22.016 26.1469 24.3518 26.1266 24.3518 26.1018C24.3518 25.9447 23.1512 22.5121 22.9903 22.2091C22.7407 21.7393 22.1339 21.1307 21.6748 20.8896C21.1883 20.6341 20.8928 20.5582 19.2037 20.2546C17.2491 19.9031 17.4086 19.9441 17.4129 19.795C17.4155 19.706 17.5506 19.5707 17.8619 19.3453C18.1068 19.1678 18.4237 18.8869 18.5661 18.721L18.8251 18.4193L19.5145 18.3962C20.0713 18.3775 20.2493 18.3492 20.44 18.2494C20.7386 18.093 20.9749 17.8583 21.1365 17.5576C21.2618 17.3245 21.2629 17.2904 21.2629 13.8629C21.2629 10.7554 21.2522 10.3538 21.1573 9.91548C20.634 7.49748 18.907 5.67536 16.5289 5.03201C16.1912 4.94066 15.8608 4.90736 15.1441 4.89241C14.6263 4.88162 14.1233 4.88543 14.0262 4.90085ZM15.838 5.88808C17.7627 6.2226 19.3794 7.58346 20.0026 9.3936C20.2402 10.0837 20.2912 10.4965 20.2917 11.7327L20.2922 12.8273L20.0568 12.7352C19.8273 12.6454 19.8215 12.636 19.8215 12.3588V12.0745H19.2601C17.8314 12.0745 16.4847 11.492 15.4133 10.4106L14.9765 9.96972L14.4629 10.4568C13.2948 11.5647 12.101 12.0745 10.675 12.0745H10.1136V12.3588C10.1136 12.6371 10.1086 12.6451 9.87282 12.7373L9.63198 12.8316L9.6588 11.4709C9.6888 9.95364 9.7242 9.7566 10.1173 8.91738C10.825 7.40682 12.2063 6.28542 13.7659 5.95522C14.6072 5.77715 15.1064 5.76097 15.838 5.88808ZM26.8591 9.15642C26.8121 9.22956 26.4281 9.86346 26.0059 10.5652L25.2382 11.8409L25.4863 11.9935C25.6228 12.0775 25.7931 12.1828 25.8647 12.2276C25.9364 12.2724 26.0165 12.3091 26.0427 12.3091C26.0689 12.3091 26.2728 12.0035 26.4958 11.63C26.7637 11.1813 26.9159 10.9775 26.9447 11.0291C26.9686 11.0719 27.0564 11.3577 27.1398 11.6641C28.1391 15.3359 27.4254 19.2814 25.2044 22.3634C25.0191 22.6206 24.8558 22.8613 24.8416 22.8983C24.8188 22.9573 25.4428 23.5067 25.5337 23.5079C25.6043 23.5088 26.2578 22.578 26.6584 21.9061C27.917 19.7951 28.5437 17.5045 28.546 15.0062C28.5472 13.6573 28.3553 12.2945 28.0015 11.1394C27.9377 10.9315 27.8927 10.7542 27.9014 10.7456C27.9149 10.7321 28.429 11.0292 29.0987 11.4373L29.286 11.5514L29.5332 11.1367C29.6691 10.9087 29.7703 10.7124 29.7578 10.7006C29.7293 10.6735 27.2114 9.16584 27.058 9.08406C26.9662 9.0351 26.9282 9.0489 26.8591 9.15642ZM15.3768 11.6806C16.1424 12.3099 17.2503 12.8093 18.2035 12.9548C18.4624 12.9944 18.7073 13.036 18.7477 13.0472C18.8041 13.0628 18.8211 13.4135 18.8204 14.55C18.8194 16.1436 18.7814 16.4458 18.5026 17.0723L18.3529 17.4085L16.6602 17.4241L14.9675 17.4396V17.9087V18.3778L16.2325 18.4071L17.4975 18.4364L17.2195 18.6287C16.8026 18.9173 16.2598 19.1552 15.7723 19.2634C15.1893 19.3926 14.291 19.3525 13.7614 19.1734C12.5691 18.7704 11.6533 17.8387 11.2499 16.6187C11.1023 16.1722 11.0936 16.0768 11.0684 14.6326C11.0395 12.9734 11.0313 13.0153 11.3858 13.0136C11.6692 13.0122 12.6299 12.7529 13.1168 12.5465C13.5694 12.3545 14.5881 11.7124 14.7854 11.4946C14.8471 11.4265 14.9206 11.3709 14.9488 11.3709C14.977 11.3709 15.1696 11.5103 15.3768 11.6806ZM10.1136 14.5474V15.3785L9.96096 15.2363C9.87702 15.1582 9.77106 15.023 9.72558 14.9359C9.62634 14.7457 9.61716 14.2861 9.70914 14.1082C9.79308 13.9457 10.0014 13.7163 10.065 13.7163C10.0918 13.7163 10.1136 14.0903 10.1136 14.5474ZM20.1843 14.0711C20.3902 14.4536 20.3045 14.9288 19.9741 15.2363L19.8215 15.3785V14.5402V13.702L19.949 13.7864C20.0191 13.8328 20.125 13.9609 20.1843 14.0711ZM20.2922 16.68C20.2922 17.0716 20.2756 17.139 20.1477 17.2663C20.0339 17.3798 19.9426 17.4103 19.7167 17.4103H19.4301L19.5654 17.0145C19.6399 16.7968 19.7014 16.5783 19.7023 16.5289C19.7035 16.4559 20.0474 16.2767 20.248 16.2446C20.2723 16.2407 20.2922 16.4366 20.2922 16.68ZM5.11144 19.3741L4.8465 19.6382L3.73081 18.5252L2.61517 17.4122L2.87705 17.1463L3.13898 16.8803L4.25768 17.9952L5.37643 19.1101L5.11144 19.3741ZM3.97021 20.5456C3.66791 20.9896 3.6289 21.5617 3.86948 22.0238C4.04587 22.3625 7.79328 26.0599 8.08128 26.1793C8.5341 26.3671 9.23856 26.267 9.55602 25.9697C9.67626 25.8572 9.6801 25.8602 10.7924 26.9729L11.9081 28.0889L11.6003 28.3738C11.4311 28.5304 11.1398 28.7333 10.9531 28.8246C10.64 28.9778 10.5614 28.9906 9.93714 28.9901C8.83002 28.9892 9.14238 29.2351 4.95335 25.0678C1.03067 21.1655 1.1344 21.2858 0.979896 20.4577C0.850578 19.7646 1.09204 18.9957 1.62432 18.4057L1.89614 18.1044L3.00907 19.2136L4.12206 20.3227L3.97021 20.5456ZM14.9969 20.3025C15.4729 20.3002 15.8465 20.2669 16.0559 20.2081C16.2338 20.158 16.3852 20.1229 16.3922 20.1298C16.3993 20.1368 16.0812 20.4645 15.6854 20.858L14.9659 21.5734L14.2382 20.8465L13.5106 20.1196L13.886 20.2128C14.1344 20.2745 14.5104 20.3048 14.9969 20.3025ZM13.8932 21.9099L14.9381 22.9501L15.9919 21.9011L17.0457 20.8522L18.8895 21.1847C20.3827 21.454 20.8021 21.5506 21.0944 21.6923C21.4943 21.8862 21.8564 22.2066 22.0872 22.5711C22.2146 22.7722 22.9986 24.9481 22.9986 25.1006C22.9986 25.1278 20.7412 25.1501 17.9822 25.1501H12.9658L12.0552 24.2413C11.5544 23.7414 11.1217 23.3324 11.0935 23.3324C11.0653 23.3324 10.6679 23.6711 10.2103 24.0851C8.87946 25.2889 8.83224 25.326 8.63064 25.326C8.47974 25.326 8.34744 25.2262 7.84578 24.7342L7.24236 24.1425L7.47018 23.4667C7.72842 22.7006 7.95918 22.3039 8.31612 22.0124C8.7705 21.6414 9.10602 21.5363 10.9099 21.2C11.8472 21.0253 12.6668 20.8794 12.7312 20.876C12.8089 20.8718 13.2002 21.22 13.8932 21.9099ZM12.9823 27.1287L12.6752 27.4387L11.5562 26.3203L10.4372 25.2019L10.7555 24.9073L11.0737 24.6128L12.1816 25.7158L13.2895 26.8187L12.9823 27.1287Z" fill="#FE8C12"/>
</svg>
