<svg width="235" height="200" viewBox="0 0 235 200" fill="none" xmlns="http://www.w3.org/2000/svg">
<g opacity="0.1">
<path d="M118.886 0.00548763C106.293 -0.115016 94.2428 1.75276 82.7949 5.24738L81.8308 84.5389H82.4334C91.5917 69.0541 107.92 59.1126 130.454 59.3536C165.159 59.7754 189.38 88.9976 188.597 131.475C187.995 181.484 156.182 206.007 124.971 205.645C104.727 205.404 88.6393 197.391 78.4568 178.773H77.6132L76.1672 201.91L54.1752 201.669C54.838 192.149 55.6213 177.99 55.7418 165.517L57.4891 16.635C23.507 36.8797 0.49075 73.6936 0.00873432 116.111C-0.774541 181.002 51.2229 234.205 116.114 234.988C181.006 235.771 234.208 183.774 234.991 118.883C235.775 53.9912 183.777 0.788763 118.886 0.00548763Z" fill="#FE8C12"/>
<path d="M120.031 185.339C146.662 185.64 162.81 164.13 163.171 132.016C163.533 103.939 149.313 79.7777 122.139 79.4764C104.787 79.2957 88.4587 90.9243 83.036 110.265C82.4335 113.157 81.5297 116.592 81.4694 120.689L81.1682 145.874C81.1079 149.067 81.6502 152.261 82.1924 155.153C86.8921 172.807 101.533 185.158 120.031 185.339Z" fill="#FE8C12"/>
<path d="M54.1768 201.608L76.1687 201.849L77.6147 178.712H78.4583C88.6408 197.33 104.728 205.343 124.973 205.584C156.183 205.946 187.996 181.484 188.599 131.414C189.382 88.9367 165.161 59.7145 130.456 59.2928C107.921 59.0518 91.5932 68.933 82.4349 84.478H81.8324L82.7964 5.18652C73.8189 7.95811 65.3836 11.8142 57.4906 16.5139L55.7433 165.396C55.6228 177.929 54.8395 192.088 54.1768 201.608ZM81.4709 120.689C81.5311 116.653 82.4349 113.158 83.0374 110.266C88.4601 90.925 104.788 79.2963 122.141 79.4771C149.315 79.7784 163.474 104 163.173 132.017C162.811 164.131 146.603 185.641 120.032 185.34C101.535 185.099 86.8935 172.807 82.1939 155.093C81.6516 152.201 81.1093 149.008 81.1696 145.815L81.4709 120.689Z" fill="white"/>
</g>
</svg>
